<?xml version="1.0" encoding="UTF-8"?>
<svg version="1.1" xmlns="http://www.w3.org/2000/svg" width="120" height="116">
<path d="M0 0 C2.88855873 1.3782815 4.68499819 2.4864052 6.6640625 5.01953125 C7.14117676 5.62297363 7.61829102 6.22641602 8.10986328 6.84814453 C8.6098584 7.49638184 9.10985352 8.14461914 9.625 8.8125 C10.15206543 9.48394043 10.67913086 10.15538086 11.22216797 10.84716797 C12.82319712 12.89172221 14.41305383 14.94450295 16 17 C16.67869141 17.87519287 16.67869141 17.87519287 17.37109375 18.76806641 C20.26392411 22.49950983 23.13401182 26.24790919 26 30 C27.64400891 32.14723683 29.29009735 34.29286598 30.9375 36.4375 C31.34685791 36.97060791 31.75621582 37.50371582 32.17797852 38.05297852 C35.72920891 42.66812346 39.33062612 47.24289671 42.94482422 51.80883789 C45.21773882 54.69075728 47.45328024 57.59164955 49.625 60.55078125 C50.0367749 61.11079834 50.4485498 61.67081543 50.87280273 62.24780273 C51.99540913 63.78323709 53.10931651 65.3250207 54.22265625 66.8671875 C55.10244141 67.92292969 55.10244141 67.92292969 56 69 C56.66 69 57.32 69 58 69 C59.37915676 67.34501189 60.67650388 65.62169626 61.9375 63.875 C62.74846837 62.76580563 63.56103575 61.65777901 64.375 60.55078125 C64.80296875 59.9676416 65.2309375 59.38450195 65.671875 58.78369141 C67.86997161 55.83161533 70.15341484 52.94823285 72.4375 50.0625 C81.15959948 39.00939084 89.68344405 27.80631044 98.20385742 16.59741211 C99.49734313 14.89714967 100.79310461 13.19861575 102.09130859 11.50195312 C103.39453385 9.79365785 104.68876267 8.0784713 105.97509766 6.35742188 C106.59819824 5.53306641 107.22129883 4.70871094 107.86328125 3.859375 C108.41927002 3.11655273 108.97525879 2.37373047 109.5480957 1.60839844 C110.26678833 0.81224121 110.26678833 0.81224121 111 0 C111.66 0 112.32 0 113 0 C113 36.3 113 72.6 113 110 C108.05 110 103.1 110 98 110 C97.67 88.22 97.34 66.44 97 44 C94.03 47.96 91.06 51.92 88 56 C86.35971208 58.15007525 84.71514268 60.29690657 83.0625 62.4375 C82.22003132 63.52993191 81.37758404 64.62238031 80.53515625 65.71484375 C80.11637207 66.25737793 79.69758789 66.79991211 79.26611328 67.35888672 C77.17432793 70.07022129 75.08739339 72.78528372 73 75.5 C72.17971115 76.56642444 71.35939855 77.63283061 70.5390625 78.69921875 C70.12817383 79.23337402 69.71728516 79.7675293 69.29394531 80.31787109 C63.64697266 87.65893555 63.64697266 87.65893555 58 95 C54.8575237 93.64629844 53.15183277 92.28065344 51.1171875 89.54296875 C50.59519775 88.84953369 50.07320801 88.15609863 49.53540039 87.44165039 C48.98746826 86.69778076 48.43953613 85.95391113 47.875 85.1875 C46.70460837 83.62746814 45.53403394 82.06757342 44.36328125 80.5078125 C43.78916504 79.73727539 43.21504883 78.96673828 42.62353516 78.17285156 C34.26189076 66.98207937 25.57411149 56.02385763 17 45 C16.67 66.45 16.34 87.9 16 110 C11.05 110 6.1 110 1 110 C0 109 0 109 -0.12304783 107.17465878 C-0.12212604 106.37177709 -0.12120424 105.5688954 -0.12025452 104.74168396 C-0.12162918 103.8231665 -0.12300385 102.90464905 -0.12442017 101.95829773 C-0.12082489 100.94266251 -0.11722961 99.92702728 -0.11352539 98.88061523 C-0.11367142 97.81733002 -0.11381744 96.7540448 -0.1139679 95.65853882 C-0.11326825 92.12520342 -0.10547343 88.59192 -0.09765625 85.05859375 C-0.09579225 82.61621632 -0.09436827 80.17383851 -0.09336853 77.73146057 C-0.08954189 71.28865536 -0.07971037 64.84587252 -0.06866455 58.40307617 C-0.05845356 51.83447574 -0.05387158 45.2658717 -0.04882812 38.69726562 C-0.03808823 25.79816751 -0.02120104 12.89908494 0 0 Z " fill="#383838" transform="translate(4,3)"/>
<path d="M0 0 C1.98 0.99 1.98 0.99 4 2 C4 2.99 4 3.98 4 5 C3.34 4.67 2.68 4.34 2 4 C2 38.65 2 73.3 2 109 C6.29 109 10.58 109 15 109 C15 86.89 15 64.78 15 42 C16.32 42.66 17.64 43.32 19 44 C18.01 44.495 18.01 44.495 17 45 C16.67 66.45 16.34 87.9 16 110 C11.05 110 6.1 110 1 110 C0 109 0 109 -0.12304783 107.17465878 C-0.12212604 106.37177709 -0.12120424 105.5688954 -0.12025452 104.74168396 C-0.12162918 103.8231665 -0.12300385 102.90464905 -0.12442017 101.95829773 C-0.12082489 100.94266251 -0.11722961 99.92702728 -0.11352539 98.88061523 C-0.11367142 97.81733002 -0.11381744 96.7540448 -0.1139679 95.65853882 C-0.11326825 92.12520342 -0.10547343 88.59192 -0.09765625 85.05859375 C-0.09579225 82.61621632 -0.09436827 80.17383851 -0.09336853 77.73146057 C-0.08954189 71.28865536 -0.07971037 64.84587252 -0.06866455 58.40307617 C-0.05845356 51.83447574 -0.05387158 45.2658717 -0.04882812 38.69726562 C-0.03808823 25.79816751 -0.02120104 12.89908494 0 0 Z " fill="#9F9F9F" transform="translate(4,3)"/>
<path d="M0 0 C-1.37154504 2.95409701 -2.98863724 5.44008376 -5 8 C-6.32 7.34 -7.64 6.68 -9 6 C-8.00269864 3.5067466 -7.34925469 2.22532561 -5.0625 0.75 C-3 0 -3 0 0 0 Z " fill="#676767" transform="translate(67,90)"/>
<path d="M0 0 C4.875 4.75 4.875 4.75 6 7 C4.02 7.33 2.04 7.66 0 8 C-0.98120464 4.94736336 -0.98120464 3.05263664 0 0 Z " fill="#565656" transform="translate(27,31)"/>
<path d="M0 0 C0.33 0.99 0.66 1.98 1 3 C-0.65 4.65 -2.3 6.3 -4 8 C-4.66 7.67 -5.32 7.34 -6 7 C-4.02 4.69 -2.04 2.38 0 0 Z " fill="#707070" transform="translate(93,32)"/>
<path d="M0 0 C0.33 0.66 0.66 1.32 1 2 C-0.98 4.31 -2.96 6.62 -5 9 C-5 4.61031544 -2.87194899 3.23094261 0 0 Z " fill="#858585" transform="translate(109,11)"/>
</svg>
