<?xml version="1.0" encoding="UTF-8"?>
<svg id="Layer_1" data-name="Layer 1" xmlns="http://www.w3.org/2000/svg" viewBox="0 0 915.55731201 100.00000016">
  <defs>
    <style>
      .cls-1 {
        fill: #1a2034;
      }

      .cls-1, .cls-2 {
        stroke-width: 0px;
      }

      .cls-2 {
        fill: #4CBDD1;
      }
    </style>
  </defs>
  <polygon class="cls-2" points="301.56276649 .00000016 243.82775672 100.00000016 220.73376258 100.00000016 278.46877234 .00000016 301.56276649 .00000016"/>
  <g>
    <rect class="cls-1" width="85" height="20"/>
    <path class="cls-1" d="M48.32434082,24.73376465l-16.82440186-2.33380127.00134277,77.60003662h21.99865723V30.67681885c0-2.99511719-2.20880127-5.53155518-5.17559814-5.9430542Z"/>
    <rect class="cls-1" x="168.69317627" width="22" height="100"/>
    <path class="cls-1" d="M158.29406738,40h-37.2008667V0h-22v100h22v-40.0010376l45.20001221.0010376-2.05639648-14.82470703c-.41149902-2.96661377-2.94775391-5.17529297-5.94274902-5.17529297Z"/>
    <path class="cls-1" d="M226.74377441,0h-23.09399414l36.10400391,62.52398682,7.31500244-18.10498047c1.38397217-3.42504883,1.11297607-7.29699707-.73498535-10.49603271L226.74377441,0Z"/>
    <path class="cls-1" d="M751.9375,60h43v-20h-43v-9.32318115c0-2.99511719-2.2088623-5.53155518-5.17565918-5.9430542l-16.82434082-2.33380127v77.60003662h75v-20h-53v-20Z"/>
    <rect class="cls-1" x="729.9375" width="75" height="20"/>
    <path class="cls-1" d="M443.77124023,59.99890137h-22.7487793l10.19573975-27.46398926c1.2678833-3.41534424,1.52722168-7.12316895.74694824-10.6817627l-4.79138184-21.85314941h-6.1539917l-37.12402344,100h22.27667236l7.42510986-20.00079346,39.38616943.00091553-3.35168457-15.28625488c-.6036377-2.75311279-3.04223633-4.71496582-5.86077881-4.71496582Z"/>
    <polygon class="cls-1" points="429.5737915 0 437.48376465 21.30596924 444.16174316 39.29400635 466.69775391 100 488.9744873 100 451.8505249 0 429.5737915 0"/>
    <path class="cls-1" d="M337.30554199,85.17559814l-2.05633545,14.82440186,42.99890137-.0012207v-19.9987793h-34.99945068c-2.99517822,0-5.53161621,2.2088623-5.94311523,5.17559814Z"/>
    <rect class="cls-1" x="310.84814453" width="22" height="100"/>
    <path class="cls-1" d="M576.28179932,56.0401001c0,6.01873779,1.03143311,11.99291992,3.04956055,17.66314697l9.35943604,26.29675293h9.59100342V0h-22v56.0401001Z"/>
    <path class="cls-1" d="M501.48181152,0v99.99981689h22V22.67681885c0-.45996094-.06304932-1.14404297-.06304932-1.14404297l.12304688-.02404785s.1539917.41723633.2130127.53009033c.05767822.11035156,39.95697021,77.96099854,39.95697021,77.96099854h22.57897949L534.7868042,0h-33.30499268Z"/>
    <path class="cls-1" d="M655.24450684,0l-32.05444336.00067139v19.99932861h32.05444336c22.08959961.06439209,33.14550781,1.38104248,33.14550781,30,0,28.78051758-11.26647949,29.93621826-33.14550781,30h-10.05444336V30.67681885c0-2.99511719-2.2088623-5.53155518-5.17565918-5.9430542l-16.82434082-2.33380127v77.60003662h32.05444336c24.4039917,0,55.14544678-2.95178223,55.14550781-50-.00006104-47.07781982-30.7857666-50-55.14550781-50Z"/>
    <path class="cls-1" d="M896.67327881,64.81378174s.1340332-.03997803.67089844-.25c.03613281-.01495361.07409668-.0289917.11303711-.04492188,10.10107422-4.10906982,18.10009766-12.66802979,18.10009766-30.39007568,0-31.6819458-26.14501953-34.12878418-43.59399414-34.12878418h-42.80603027v20.00079346l42.80603027-.05895996c10.25695801,0,22.32495117-.57000732,22.36096191,14.16900635-.01501465,12.89294434-9.21496582,14.19897461-18.38000488,14.19897461-1.26904297,0-14.47119141-.00183105-24.7869873-.00488281v-17.62811279c0-2.99511719-2.2088623-5.53155518-5.17565918-5.9430542l-16.82434082-2.33380127.00134277,77.60003662h21.99865723v-31.74371338l20.80603027.00054932c1.00585938,0,2.04199219-.00701904,3.09997559-.02606201l16.67199707,31.76922607h23.57897949s-17.91174316-34.13079834-18.12402344-34.53515625c-.2121582-.40435791-.51696777-.65106201-.51696777-.65106201Z"/>
  </g>
</svg>