<svg xmlns="http://www.w3.org/2000/svg" xmlns:xlink="http://www.w3.org/1999/xlink" width="500" zoomAndPan="magnify" viewBox="0 0 375 374.999991" height="500" preserveAspectRatio="xMidYMid meet" version="1.2"><defs><clipPath id="e477f40efd"><path d="M 37.5 222.671875 L 234.886719 222.671875 L 234.886719 227.054688 L 37.5 227.054688 Z M 37.5 222.671875 "/></clipPath></defs><g id="4d3bfbc783"><g clip-rule="nonzero" clip-path="url(#e477f40efd)"><path style=" stroke:none;fill-rule:nonzero;fill:#2e2e2e;fill-opacity:1;" d="M 37.5 222.671875 L 234.882812 222.671875 L 234.882812 227.054688 L 37.5 227.054688 Z M 37.5 222.671875 "/></g><g style="fill:#2e2e2e;fill-opacity:1;"><g transform="translate(29.088558, 205.279263)"><path style="stroke:none" d="M 47.1875 -29.125 L 29.609375 -6.296875 L 11.96875 -29.1875 L 11.96875 0 L 6.015625 0 L 6.015625 -46.265625 L 29.609375 -15.890625 L 52.984375 -46.265625 L 52.984375 0 L 47.1875 0 Z M 47.1875 -29.125 "/></g></g><g style="fill:#2e2e2e;fill-opacity:1;"><g transform="translate(82.005337, 205.279263)"><path style="stroke:none" d="M 46.265625 -11.203125 C 44.171875 -7.609375 41.375 -4.785156 37.875 -2.734375 C 34.320312 -0.628906 30.46875 0.421875 26.3125 0.421875 C 22.113281 0.421875 18.265625 -0.628906 14.765625 -2.734375 C 11.222656 -4.785156 8.425781 -7.609375 6.375 -11.203125 C 4.320312 -14.742188 3.296875 -18.613281 3.296875 -22.8125 C 3.296875 -26.96875 4.320312 -30.84375 6.375 -34.4375 C 8.46875 -37.988281 11.289062 -40.8125 14.84375 -42.90625 C 18.34375 -44.957031 22.164062 -45.984375 26.3125 -45.984375 C 30.425781 -45.984375 34.28125 -44.957031 37.875 -42.90625 C 41.414062 -40.8125 44.210938 -37.988281 46.265625 -34.4375 C 48.316406 -30.84375 49.34375 -26.96875 49.34375 -22.8125 C 49.34375 -18.664062 48.316406 -14.796875 46.265625 -11.203125 Z M 41.234375 -31.5 C 39.691406 -34.15625 37.59375 -36.28125 34.9375 -37.875 C 32.269531 -39.414062 29.394531 -40.1875 26.3125 -40.1875 C 23.1875 -40.1875 20.316406 -39.414062 17.703125 -37.875 C 15.046875 -36.28125 12.945312 -34.15625 11.40625 -31.5 C 9.863281 -28.84375 9.09375 -25.945312 9.09375 -22.8125 C 9.09375 -19.644531 9.863281 -16.726562 11.40625 -14.0625 C 12.945312 -11.40625 15.046875 -9.304688 17.703125 -7.765625 C 20.367188 -6.179688 23.238281 -5.390625 26.3125 -5.390625 C 29.488281 -5.390625 32.382812 -6.179688 35 -7.765625 C 37.65625 -9.304688 39.753906 -11.40625 41.296875 -14.0625 C 42.796875 -16.726562 43.546875 -19.644531 43.546875 -22.8125 C 43.546875 -25.945312 42.773438 -28.84375 41.234375 -31.5 Z M 41.234375 -31.5 "/></g></g><g style="fill:#2e2e2e;fill-opacity:1;"><g transform="translate(128.552461, 205.279263)"><path style="stroke:none" d="M 47.1875 -29.125 L 29.609375 -6.296875 L 11.96875 -29.1875 L 11.96875 0 L 6.015625 0 L 6.015625 -46.265625 L 29.609375 -15.890625 L 52.984375 -46.265625 L 52.984375 0 L 47.1875 0 Z M 47.1875 -29.125 "/></g></g><g style="fill:#2e2e2e;fill-opacity:1;"><g transform="translate(181.46924, 205.279263)"><path style="stroke:none" d="M 5.953125 -45.5625 L 35.0625 -45.5625 L 35.0625 -39.6875 L 11.765625 -39.6875 L 11.765625 -25.765625 L 29.609375 -25.765625 L 29.609375 -19.875 L 11.765625 -19.875 L 11.765625 -5.8125 L 35.0625 -5.8125 L 35.0625 0 L 5.953125 0 Z M 5.953125 -45.5625 "/></g></g><g style="fill:#2e2e2e;fill-opacity:1;"><g transform="translate(216.397006, 205.279263)"><path style="stroke:none" d="M 11.90625 0 L 6.015625 0 L 6.015625 -46.265625 L 35.625 -14.28125 L 35.625 -45.5625 L 41.4375 -45.5625 L 41.4375 1.125 L 11.90625 -31.015625 Z M 11.90625 0 "/></g></g><g style="fill:#2e2e2e;fill-opacity:1;"><g transform="translate(257.694416, 205.279263)"><path style="stroke:none" d="M 3.5625 -45.5625 L 40.453125 -45.5625 L 40.453125 -39.6875 L 24.984375 -39.6875 L 24.984375 0 L 19.046875 0 L 19.046875 -39.6875 L 3.5625 -39.6875 Z M 3.5625 -45.5625 "/></g></g><g style="fill:#2e2e2e;fill-opacity:1;"><g transform="translate(295.632013, 205.279263)"><path style="stroke:none" d="M 10.078125 -45.5625 L 25.203125 -21.765625 L 40.109375 -45.5625 L 47.109375 -45.5625 L 28.0625 -15.609375 L 28.0625 0 L 22.265625 0 L 22.265625 -15.609375 L 3.15625 -45.5625 Z M 10.078125 -45.5625 "/></g></g><g style="fill:#2e2e2e;fill-opacity:1;"><g transform="translate(245.216407, 227.208107)"><path style="stroke:none" d="M 0.671875 0 L 0.671875 -5.625 L 1.953125 -5.625 L 1.953125 -1.203125 L 4.421875 -1.203125 L 4.421875 0 Z M 0.671875 0 "/></g></g><g style="fill:#2e2e2e;fill-opacity:1;"><g transform="translate(251.802645, 227.208107)"><path style="stroke:none" d="M 0.078125 0 L 2.3125 -5.625 L 3.5625 -5.625 L 5.796875 0 L 4.4375 0 L 4.0625 -0.96875 L 1.8125 -0.96875 L 1.4375 0 Z M 2.15625 -1.984375 L 3.734375 -1.984375 L 2.9375 -4.046875 Z M 2.15625 -1.984375 "/></g></g><g style="fill:#2e2e2e;fill-opacity:1;"><g transform="translate(259.627322, 227.208107)"><path style="stroke:none" d="M 2.640625 0.109375 C 2.171875 0.109375 1.765625 0.03125 1.421875 -0.125 C 1.078125 -0.28125 0.8125 -0.5 0.625 -0.78125 C 0.445312 -1.070312 0.359375 -1.410156 0.359375 -1.796875 L 1.609375 -1.796875 C 1.609375 -1.523438 1.703125 -1.3125 1.890625 -1.15625 C 2.078125 -1.007812 2.320312 -0.9375 2.625 -0.9375 C 2.894531 -0.9375 3.109375 -0.988281 3.265625 -1.09375 C 3.421875 -1.195312 3.5 -1.34375 3.5 -1.53125 C 3.5 -1.726562 3.40625 -1.890625 3.21875 -2.015625 C 3.03125 -2.140625 2.738281 -2.242188 2.34375 -2.328125 C 1.6875 -2.472656 1.195312 -2.6875 0.875 -2.96875 C 0.5625 -3.25 0.40625 -3.617188 0.40625 -4.078125 C 0.40625 -4.597656 0.59375 -5.003906 0.96875 -5.296875 C 1.34375 -5.597656 1.851562 -5.75 2.5 -5.75 C 2.945312 -5.75 3.332031 -5.671875 3.65625 -5.515625 C 3.988281 -5.359375 4.242188 -5.140625 4.421875 -4.859375 C 4.597656 -4.585938 4.6875 -4.265625 4.6875 -3.890625 L 3.453125 -3.890625 C 3.453125 -4.140625 3.367188 -4.335938 3.203125 -4.484375 C 3.046875 -4.628906 2.816406 -4.703125 2.515625 -4.703125 C 2.242188 -4.703125 2.03125 -4.648438 1.875 -4.546875 C 1.726562 -4.441406 1.65625 -4.296875 1.65625 -4.109375 C 1.65625 -3.929688 1.738281 -3.785156 1.90625 -3.671875 C 2.082031 -3.554688 2.382812 -3.445312 2.8125 -3.34375 C 3.507812 -3.175781 4.015625 -2.953125 4.328125 -2.671875 C 4.640625 -2.390625 4.796875 -2.023438 4.796875 -1.578125 C 4.796875 -1.046875 4.601562 -0.628906 4.21875 -0.328125 C 3.832031 -0.0351562 3.304688 0.109375 2.640625 0.109375 Z M 2.640625 0.109375 "/></g></g><g style="fill:#2e2e2e;fill-opacity:1;"><g transform="translate(266.736275, 227.208107)"><path style="stroke:none" d="M 2.03125 0 L 2.03125 -4.4375 L 0.234375 -4.4375 L 0.234375 -5.625 L 5.09375 -5.625 L 5.09375 -4.4375 L 3.3125 -4.4375 L 3.3125 0 Z M 2.03125 0 "/></g></g><g style="fill:#2e2e2e;fill-opacity:1;"><g transform="translate(274.022152, 227.208107)"><path style="stroke:none" d=""/></g></g><g style="fill:#2e2e2e;fill-opacity:1;"><g transform="translate(277.866126, 227.208107)"><path style="stroke:none" d="M 0.671875 0 L 0.671875 -5.625 L 1.765625 -5.625 L 3.765625 -2.71875 L 5.765625 -5.625 L 6.84375 -5.625 L 6.84375 0 L 5.5625 0 L 5.5625 -3.390625 L 4.203125 -1.390625 L 3.3125 -1.390625 L 1.953125 -3.390625 L 1.953125 0 Z M 0.671875 0 "/></g></g><g style="fill:#2e2e2e;fill-opacity:1;"><g transform="translate(287.331345, 227.208107)"><path style="stroke:none" d="M 0.671875 0 L 0.671875 -5.625 L 1.953125 -5.625 L 1.953125 0 Z M 0.671875 0 "/></g></g><g style="fill:#2e2e2e;fill-opacity:1;"><g transform="translate(291.915166, 227.208107)"><path style="stroke:none" d="M 0.671875 0 L 0.671875 -5.625 L 1.953125 -5.625 L 1.953125 -1.203125 L 4.421875 -1.203125 L 4.421875 0 Z M 0.671875 0 "/></g></g><g style="fill:#2e2e2e;fill-opacity:1;"><g transform="translate(298.501404, 227.208107)"><path style="stroke:none" d="M 0.671875 0 L 0.671875 -5.625 L 4.375 -5.625 L 4.375 -4.546875 L 1.953125 -4.546875 L 1.953125 -3.390625 L 4.15625 -3.390625 L 4.15625 -2.3125 L 1.953125 -2.3125 L 1.953125 -1.09375 L 4.46875 -1.09375 L 4.46875 0 Z M 0.671875 0 "/></g></g><g style="fill:#2e2e2e;fill-opacity:1;"><g transform="translate(305.328895, 227.208107)"><path style="stroke:none" d=""/></g></g><g style="fill:#2e2e2e;fill-opacity:1;"><g transform="translate(309.17287, 227.208107)"><path style="stroke:none" d="M 0.078125 0 L 2.3125 -5.625 L 3.5625 -5.625 L 5.796875 0 L 4.4375 0 L 4.0625 -0.96875 L 1.8125 -0.96875 L 1.4375 0 Z M 2.15625 -1.984375 L 3.734375 -1.984375 L 2.9375 -4.046875 Z M 2.15625 -1.984375 "/></g></g><g style="fill:#2e2e2e;fill-opacity:1;"><g transform="translate(316.997547, 227.208107)"><path style="stroke:none" d="M 0.671875 0 L 0.671875 -5.625 L 1.953125 -5.625 L 1.953125 0 Z M 0.671875 0 "/></g></g></g></svg>